<svg width="250" height="250" viewBox="0 0 250 250" fill="none" xmlns="http://www.w3.org/2000/svg">
<path fill-rule="evenodd" clip-rule="evenodd" d="M186.098 214.988C178.692 214.644 174.649 212.97 172.606 211.553C172.01 211.166 172.393 210.222 173.116 210.351C174.521 210.608 176.351 210.694 177.926 210.179C178.139 210.093 181.884 208.376 168.988 205.714C157.922 203.481 140.216 193.778 135.236 190.644C135.208 190.644 135.194 190.644 135.194 190.644C131.59 188.268 127.944 185.721 124.255 183.002C124.212 183.002 124.17 183.002 124.127 183.002L75.5213 211.338C75.4646 211.338 75.4078 211.338 75.3511 211.338C44.4935 193.177 25.2128 159.645 25 123.581C25 123.523 25.0142 123.48 25.0426 123.452L50.1968 108.811C50.2819 108.768 50.2819 108.682 50.2394 108.597C47.941 104.131 42.1526 92.6251 37.5133 80.4747C32.4484 67.2509 31.3418 59.6087 33.0443 52.0952C33.2145 51.4082 34.236 51.4941 34.3211 52.224C35.0447 60.2097 39.1306 57.2043 38.5773 52.5245C36.8323 37.7551 49.6861 35.4796 49.6861 35.4796C56.5811 33.3759 85.4809 37.4546 108.55 62.657C108.55 62.6856 108.564 62.6999 108.592 62.6999C108.933 63.0863 108.422 63.6015 108.039 63.2581C92.759 50.2919 72.5845 43.5083 63.008 44.6675C62.9513 44.6675 62.8945 44.6675 62.8378 44.6675C59.6456 45.0969 57.0068 46.2561 55.0489 48.1882C47.0898 56.2169 52.4952 75.7949 67.1791 98.7647C67.2217 98.8076 67.3068 98.8505 67.3494 98.8076L69.5201 97.5625C78.5858 92.2816 81.6928 91.981 86.2044 92.2816C90.6735 92.5821 100.761 96.1457 107.23 98.4212C112.465 100.31 117.743 96.2315 118.509 91.8522C118.977 89.2332 120.254 80.2171 121.361 74.0775C122.467 68.1526 126.043 64.8466 131.533 61.4548L156.475 46.9001C156.517 46.9001 156.56 46.9001 156.602 46.9431L159.709 49.3045C159.752 49.3474 159.837 49.3474 159.88 49.3045C160.773 48.7463 168.988 43.6801 172.521 41.9198C172.606 41.8768 172.691 41.9627 172.691 42.0486C172.733 50.3349 171.073 56.6462 170.861 57.419C170.832 57.4763 170.846 57.5192 170.903 57.5478L174.138 60.3815C174.18 60.4673 174.18 60.5532 174.138 60.5961C173.585 61.1972 170.861 64.2026 169.669 65.7482C169.541 65.8771 169.711 66.0488 169.839 65.9629C174.18 63.5157 180.054 62.1418 184.012 62.9146C184.097 62.9575 184.14 63.0434 184.097 63.1293C182.863 65.1901 181.586 67.208 181.203 67.7662C181.161 67.852 181.203 67.9379 181.288 67.9808C182.608 68.4531 191.886 71.5873 211.891 70.9004C211.976 70.9004 212.061 70.9862 212.018 71.0721C208.528 79.8307 200.782 91.38 199.675 93.0115C199.633 93.0973 199.675 93.2261 199.803 93.2261C201.08 93.3549 207.336 94.0848 210.656 94.9864C210.741 95.0294 210.784 95.1582 210.741 95.2011C207.932 98.2924 202.229 104.861 200.271 107.18C200.229 107.266 200.271 107.394 200.399 107.437C203.336 107.695 204.612 107.266 204.953 107.094C205.038 107.094 205.123 107.094 205.166 107.18C205.421 107.824 206.57 110.443 206.57 111.817C206.57 111.874 206.585 111.917 206.613 111.945C209.933 113.663 221.212 119.33 222.701 120.103C222.744 120.103 222.786 120.232 222.744 120.318C221.765 121.52 214.402 130.407 200.526 138.522L198.739 139.552C197.632 140.196 196.909 141.484 197.675 143.416C198.441 145.348 202.825 150.414 208.06 153.592C208.656 153.978 208.315 154.923 207.634 154.794C205.676 154.536 203.591 154.15 202.016 153.849C201.931 153.806 201.846 153.935 201.888 154.021C226.277 204.941 196.568 215.417 186.098 214.988ZM197.59 194.937C199.207 193.306 200.441 191.374 201.378 189.184C201.718 188.497 202.016 187.638 202.272 186.608C203.123 183.431 203.378 179.867 203.08 175.917C202.697 169.263 200.824 163.08 198.952 158.4C198.739 157.928 198.015 158.186 198.186 158.701C199.165 161.835 200.186 165.656 200.91 169.95C202.399 178.794 200.569 184.676 197.76 188.068C197.703 188.125 197.661 188.182 197.632 188.24C187.034 199.402 161.369 193.005 133.363 174.372C123.021 167.459 112.38 158.915 102.038 148.955C85.4809 132.983 72.4994 115.981 64.2423 100.611C63.6465 99.5232 63.079 98.4355 62.5399 97.3478C62.2419 96.8326 61.4758 97.1761 61.6886 97.7342C62.1426 98.9078 62.6392 100.081 63.1783 101.255C70.6692 118.042 83.9486 137.062 101.612 154.837C110.805 164.153 120.382 172.268 129.788 178.966C158.56 199.445 185.885 206.744 197.59 194.937ZM164.859 54.0701C160.859 57.1185 158.603 59.6087 158.092 60.2097C158.007 60.2527 157.922 60.2527 157.879 60.1668L154.134 55.1864C154.091 55.1435 154.006 55.1006 153.921 55.1864C151.665 57.6337 144.515 66.9933 144.77 78.4997C144.77 78.5426 144.727 78.5856 144.685 78.6285C140.897 80.2171 137.832 82.7931 137.279 83.2654C137.236 83.3083 137.236 83.3942 137.279 83.4801C137.62 83.9523 139.279 86.0561 141.918 87.2154C142.003 87.2583 142.046 87.3442 142.003 87.3871C140.812 90.736 140.599 95.9739 141.237 98.2924C141.266 98.3496 141.308 98.3925 141.365 98.4212C151.75 101.255 167.073 101.727 174.478 99.9239C174.606 99.8809 174.691 100.01 174.649 100.096C172.648 106.192 172.308 108.511 172.265 109.112C172.223 109.198 172.308 109.241 172.393 109.241C173.074 109.241 175.883 109.284 177.5 109.627C177.585 109.627 177.628 109.713 177.585 109.799C176.564 114.264 174.606 121.176 174.308 122.25C174.266 122.336 174.308 122.378 174.393 122.421C175.883 122.765 189.375 125.899 202.314 122.722C202.399 122.679 202.527 122.808 202.442 122.894C201.08 125.985 199.973 128.132 199.633 128.862C199.548 128.99 199.675 129.119 199.76 129.076C200.91 128.776 205.251 127.402 211.21 121.949C211.252 121.906 211.252 121.777 211.167 121.734C206.741 118.987 202.569 117.656 202.016 117.484C201.988 117.455 201.959 117.427 201.931 117.398L200.952 114.65C200.91 114.564 200.867 114.522 200.782 114.564L197.122 115.981C197.093 116.01 197.065 116.01 197.036 115.981L189.375 114.006C189.29 113.963 189.247 113.878 189.29 113.792L196.526 101.598C196.611 101.512 196.526 101.384 196.441 101.384L186.566 100.139C186.481 100.139 186.438 100.01 186.481 99.9239C187.205 98.8505 190.695 93.2691 190.312 88.5463C190.269 88.4604 190.354 88.3746 190.482 88.3746C191.844 88.6751 192.61 88.5463 192.823 88.5034C192.851 88.4748 192.879 88.4461 192.908 88.4175C193.248 87.8164 196.611 81.4622 198.143 78.6714C198.186 78.5426 198.1 78.4138 198.015 78.4568C193.546 79.1008 181.544 77.8986 173.287 74.4639C173.202 74.4639 173.202 74.378 173.202 74.3351C173.244 73.6052 173.797 72.2313 174.053 71.6732C174.095 71.5444 173.968 71.4585 173.883 71.4585C168.52 72.9612 163.71 76.2671 162.263 77.7269C162.221 77.7698 162.221 77.8986 162.306 77.9416C167.583 80.7323 170.18 82.235 170.903 82.7073C170.988 82.7502 170.988 82.879 170.903 82.9649C169.116 83.8236 157.751 89.2762 148.388 92.4104C148.218 92.4962 148.132 92.2816 148.26 92.1957C155.24 86.3996 157.666 83.6948 158.901 81.9344C158.943 81.8486 158.901 81.7627 158.858 81.7198C156.985 80.5606 154.304 79.5731 153.623 79.3155C153.538 79.2725 153.495 79.1867 153.538 79.1008C154.517 77.5122 162.816 63.5586 165.115 54.2419C165.115 54.1131 164.987 53.9843 164.859 54.0701ZM98.2495 137.448C101.016 140.411 103.91 143.33 106.932 146.121C107.046 146.236 107.159 146.336 107.273 146.422C110.55 149.041 114.253 146.722 117.232 149.899C120.339 153.248 123.659 154.665 125.745 147.881C126.128 146.55 127.915 146.98 127.617 148.139C126.766 151.617 125.617 158.658 125.106 161.234C125.064 161.663 125.191 162.093 125.574 162.35C126.085 162.737 126.511 163.08 126.809 163.295C127.107 163.509 127.532 163.381 127.575 162.994C127.958 160.848 129.107 154.536 130.639 148.525C132.555 141.098 140.854 135.903 148.728 137.62C156.602 139.38 163.327 145.906 171.329 144.661C171.84 144.575 172.365 144.475 172.904 144.361C172.904 144.361 172.904 144.346 172.904 144.318C176.351 143.116 174.989 139.252 172.818 139.166C171.371 139.123 169.584 140.625 170.35 142.515C170.392 142.6 170.307 142.729 170.222 142.686C167.541 142.386 162.093 140.497 156.56 136.203C156.134 135.86 156.475 135.173 156.985 135.302C163.88 137.191 173.883 135.001 178.011 134.786C182.097 134.572 185.289 135.044 187.46 135.86C187.517 135.86 187.559 135.845 187.588 135.817C189.588 133.928 191.333 131.824 192.738 129.677C192.823 129.548 192.738 129.42 192.61 129.42C179.118 131.266 169.286 126.844 165.838 125.513C165.753 125.513 165.753 125.427 165.753 125.341C167.115 121.262 168.733 116.797 169.116 115.767C169.158 115.638 169.073 115.552 168.945 115.552L163.795 116.668C163.71 116.668 163.625 116.625 163.625 116.539C163.625 115.509 163.668 110.443 165.072 107.008C165.115 106.922 165.072 106.793 164.944 106.836C157.156 107.523 142.003 106.106 135.066 104.346C135.023 104.346 134.981 104.303 134.981 104.217C134.938 103.101 134.427 92.9685 135.108 89.4909C135.108 89.4622 135.094 89.4193 135.066 89.3621C132.767 87.0007 130.214 84.2529 129.703 83.7377C129.66 83.6518 129.66 83.6089 129.703 83.523C130.299 82.7931 134.342 77.8986 137.79 74.7644C137.79 74.7644 137.79 74.7501 137.79 74.7215C139.024 71.0721 140.046 67.4656 140.344 66.3923C140.386 66.2635 140.258 66.1776 140.131 66.2205C136.002 68.5819 128.809 71.8449 127.703 78.328C126.553 84.9398 125.83 91.0365 124.851 96.7467C123.872 102.5 116.083 109.627 106.464 106.493C96.845 103.359 91.5247 100.611 85.7788 101.298C80.5011 101.899 74.8403 105.291 73.9891 105.849C73.904 105.892 73.904 105.978 73.9465 106.021C74.8829 107.523 84.7573 122.937 98.2495 137.448ZM59.3902 103.444C60.2982 105.047 61.2062 106.622 62.1142 108.167C62.2845 108.425 62.6675 108.21 62.5399 107.91C61.6886 106.25 60.8799 104.618 60.1138 103.015C47.8133 77.2546 46.0257 60.3385 47.941 51.8805C49.5158 45.054 55.6873 42.0056 59.1774 40.8035C59.4328 40.7176 59.3477 40.2883 59.0498 40.3312C53.4315 40.8893 45.515 42.7784 43.855 53.6408C41.9823 65.7482 49.9414 86.3567 59.3902 103.444ZM42.791 164.411C42.8761 164.583 43.1315 164.497 43.0889 164.325C38.3645 148.225 42.4931 127.187 43.0464 124.396C43.0889 124.268 42.9612 124.182 42.8336 124.225L34.1934 129.291C32.9591 129.978 32.3207 131.481 32.7038 133.198C33.0868 134.915 34.3637 147.237 42.791 164.411ZM110.891 179.867C110.976 179.824 110.976 179.696 110.891 179.653L108.805 178.107C108.762 178.064 108.677 178.064 108.635 178.107L98.3347 184.075C96.0363 185.406 94.0784 186.222 91.8652 184.418C89.652 182.572 79.5647 174.801 71.3077 160.375C63.5613 146.765 61.0502 135.516 60.5394 132.039C60.5394 131.91 60.7097 131.824 60.7948 131.953C66.0725 139.209 76.9684 148.697 82.7143 151.016C82.842 151.059 82.9697 150.887 82.842 150.758C78.3304 146.894 72.4143 139.595 68.4134 134.185C64.4126 128.819 56.8791 118.085 56.0278 116.926C55.9853 116.84 55.9002 116.84 55.8576 116.883L52.4526 118.858C52.3959 118.886 52.3675 118.929 52.3675 118.987C52.3249 120.232 51.7716 137.32 67.3068 163.252C77.6069 180.425 86.3321 187.939 89.652 190.429C90.4607 191.03 91.6098 191.116 92.5036 190.601L110.891 179.867ZM186.396 146.894C186.353 146.808 186.268 146.808 186.183 146.851L185.63 147.151C171.201 155.352 165.157 151.402 148.984 145.649C143.749 143.803 138.471 147.881 137.705 152.218C137.279 154.665 136.172 162.436 135.108 168.404C135.023 168.962 135.236 169.563 135.704 169.864C155.113 183.56 172.648 190.987 183.714 189.828C189.716 189.012 190.865 184.29 184.481 183.087C181.842 182.615 180.012 181.671 178.777 180.812C178.096 180.297 178.522 179.18 179.373 179.352C182.054 179.781 185.757 179.395 189.673 175.445C194.185 170.808 193.674 163.853 191.418 157.585C190.056 154.193 188.354 150.629 186.396 146.894Z" fill="black"/>
<path d="M207.677 159.001C210.061 162.994 216.062 168.962 218.105 170.207C218.133 170.236 218.176 170.25 218.233 170.25C220.361 170.679 223.808 168.661 224.83 168.017C225 167.932 225.042 167.717 224.957 167.545C224.659 166.944 223.936 165.484 222.787 163.08C222.744 162.994 222.616 162.908 222.489 162.865C215.338 161.964 210.316 159.602 208.188 158.486C207.847 158.271 207.507 158.658 207.677 159.001Z" fill="black"/>
<path d="M179.798 58.7069L189.715 55.2293L194.95 39.4724L179.883 49.4332L179.798 58.7069Z" fill="black"/>
</svg>
